<?xml version="1.0" encoding="utf-8"?>
<!-- Generator: Adobe Illustrator 15.0.0, SVG Export Plug-In . SVG Version: 6.00 Build 0)  -->
<!DOCTYPE svg PUBLIC "-//W3C//DTD SVG 1.1//EN" "http://www.w3.org/Graphics/SVG/1.1/DTD/svg11.dtd" [
	<!ENTITY ns_extend "http://ns.adobe.com/Extensibility/1.0/">
	<!ENTITY ns_ai "http://ns.adobe.com/AdobeIllustrator/10.0/">
	<!ENTITY ns_graphs "http://ns.adobe.com/Graphs/1.0/">
	<!ENTITY ns_vars "http://ns.adobe.com/Variables/1.0/">
	<!ENTITY ns_imrep "http://ns.adobe.com/ImageReplacement/1.0/">
	<!ENTITY ns_sfw "http://ns.adobe.com/SaveForWeb/1.0/">
	<!ENTITY ns_custom "http://ns.adobe.com/GenericCustomNamespace/1.0/">
	<!ENTITY ns_adobe_xpath "http://ns.adobe.com/XPath/1.0/">
]>
<svg version="1.1" id="Calque_1" xmlns:x="&ns_extend;" xmlns:i="&ns_ai;" xmlns:graph="&ns_graphs;"
	 xmlns="http://www.w3.org/2000/svg" xmlns:xlink="http://www.w3.org/1999/xlink" x="0px" y="0px" width="210px" height="210px"
	 viewBox="0 0 210 210" enable-background="new 0 0 210 210" xml:space="preserve">
<metadata>
	<sfw  xmlns="&ns_sfw;">
		<slices></slices>
		<sliceSourceBounds  height="210" width="210" y="-74" x="-77" bottomLeftOrigin="true"></sliceSourceBounds>
	</sfw>
</metadata>
<g>
	<circle fill="#FFFFFF" cx="105" cy="105" r="104.994"/>
	<path fill="#FFFFFF" d="M190.381,106.005c0.004-0.335,0.025-0.667,0.025-1.005s-0.021-0.669-0.025-1.005h6.544h8.038
		c-0.174-17.503-4.864-33.943-12.965-48.207l-6.927,4.01c-0.33-0.583-0.667-1.162-1.009-1.737l6.925-4.01
		c-8.565-14.399-20.64-26.474-35.039-35.039l-4.01,6.925c-0.575-0.342-1.154-0.679-1.737-1.009l4.011-6.927
		C139.947,9.901,123.508,5.21,106.005,5.037v8.039v6.543c-0.336-0.004-0.668-0.025-1.005-0.025s-0.669,0.021-1.005,0.025v-6.543
		V5.037C86.492,5.21,70.052,9.901,55.788,18.002l4.011,6.927c-0.583,0.33-1.162,0.667-1.737,1.009l-4.01-6.925
		c-14.399,8.565-26.474,20.64-35.039,35.039l6.925,4.01c-0.342,0.575-0.679,1.154-1.009,1.737l-6.927-4.01
		C9.901,70.052,5.21,86.492,5.037,103.995h8.039h6.543c-0.004,0.335-0.025,0.667-0.025,1.005s0.021,0.669,0.025,1.005h-6.543H5.037
		c0.174,17.503,4.865,33.943,12.965,48.207l6.927-4.01c0.33,0.583,0.667,1.162,1.009,1.737l-6.925,4.009
		c8.565,14.4,20.64,26.474,35.039,35.041l4.01-6.926c0.575,0.342,1.154,0.679,1.737,1.008l-4.011,6.928
		c14.264,8.102,30.704,12.791,48.207,12.965v-8.038v-6.544c0.336,0.004,0.668,0.025,1.005,0.025s0.669-0.021,1.005-0.025v6.544
		v8.038c17.503-0.174,33.942-4.863,48.207-12.965l-4.011-6.928c0.583-0.329,1.162-0.666,1.737-1.008l4.01,6.926
		c14.399-8.566,26.474-20.641,35.039-35.041l-6.925-4.009c0.342-0.575,0.679-1.154,1.009-1.737l6.927,4.01
		c8.101-14.264,12.791-30.704,12.965-48.207h-8.038H190.381z"/>
	<g>
		<path fill="#2D2D2D" d="M209.987,103.995c-0.173-18.44-5.097-35.742-13.61-50.743c-0.33-0.583-0.668-1.161-1.01-1.737
			c-9-15.173-21.71-27.883-36.883-36.882c-0.576-0.342-1.154-0.68-1.736-1.01c-15.002-8.514-32.303-13.437-50.743-13.61
			C105.67,0.01,105.336,0,105,0s-0.67,0.01-1.005,0.013c-18.44,0.173-35.742,5.096-50.743,13.61
			c-0.583,0.331-1.161,0.668-1.737,1.01c-15.173,9-27.883,21.709-36.882,36.882c-0.342,0.576-0.68,1.154-1.01,1.737
			C5.109,68.253,0.186,85.555,0.013,103.995C0.01,104.33,0,104.664,0,105s0.01,0.67,0.013,1.005
			c0.173,18.439,5.096,35.742,13.61,50.744c0.331,0.583,0.668,1.16,1.01,1.737c9,15.172,21.709,27.883,36.882,36.882
			c0.576,0.342,1.154,0.68,1.737,1.01c15.001,8.515,32.303,13.437,50.743,13.61C104.33,209.99,104.664,210,105,210
			s0.67-0.01,1.005-0.013c18.44-0.174,35.741-5.096,50.743-13.61c0.582-0.33,1.16-0.668,1.736-1.01
			c15.173-8.999,27.883-21.71,36.883-36.882c0.342-0.577,0.68-1.154,1.01-1.737c8.514-15.001,13.438-32.304,13.61-50.744
			C209.99,105.67,210,105.336,210,105S209.99,104.33,209.987,103.995z M191.998,154.212l-6.927-4.01
			c-0.33,0.583-0.667,1.162-1.009,1.737l6.925,4.009c-8.565,14.4-20.64,26.474-35.039,35.041l-4.01-6.926
			c-0.575,0.342-1.154,0.679-1.737,1.008l4.011,6.928c-14.265,8.102-30.704,12.791-48.207,12.965v-8.038v-6.544
			c-0.336,0.004-0.668,0.025-1.005,0.025s-0.669-0.021-1.005-0.025v6.544v8.038c-17.503-0.174-33.943-4.863-48.207-12.965
			l4.011-6.928c-0.583-0.329-1.162-0.666-1.737-1.008l-4.01,6.926c-14.399-8.566-26.474-20.641-35.039-35.041l6.925-4.009
			c-0.342-0.575-0.679-1.154-1.009-1.737l-6.927,4.01C9.901,139.948,5.21,123.508,5.037,106.005h8.039h6.543
			c-0.004-0.336-0.025-0.668-0.025-1.005s0.021-0.669,0.025-1.005h-6.543H5.037C5.21,86.492,9.901,70.052,18.002,55.788l6.927,4.011
			c0.33-0.583,0.667-1.162,1.009-1.737l-6.925-4.01c8.565-14.399,20.64-26.474,35.039-35.039l4.01,6.925
			c0.575-0.342,1.154-0.679,1.737-1.009l-4.011-6.927C70.052,9.901,86.492,5.21,103.995,5.037v8.039v6.543
			c0.336-0.004,0.668-0.025,1.005-0.025s0.669,0.021,1.005,0.025v-6.543V5.037c17.503,0.174,33.942,4.865,48.207,12.965
			l-4.011,6.927c0.583,0.33,1.162,0.667,1.737,1.009l4.01-6.925c14.399,8.565,26.474,20.64,35.039,35.039l-6.925,4.01
			c0.342,0.575,0.679,1.154,1.009,1.737l6.927-4.011c8.101,14.264,12.791,30.704,12.965,48.207h-8.038h-6.544
			c0.004,0.336,0.025,0.668,0.025,1.005s-0.021,0.669-0.025,1.005h6.544h8.038C204.789,123.508,200.099,139.948,191.998,154.212z"/>
		<g>
			<path fill="#7D7D7D" d="M100.143,39.186h-1.59V28.961c0-0.85,0.026-1.655,0.079-2.414c-0.138,0.137-0.291,0.281-0.461,0.432
				c-0.17,0.151-0.948,0.789-2.335,1.914l-0.864-1.119l3.797-2.934h1.374V39.186z"/>
			<path fill="#7D7D7D" d="M115.028,39.186h-9.43v-1.403l3.778-3.797c1.15-1.164,1.909-1.995,2.275-2.492
				c0.367-0.497,0.642-0.981,0.824-1.452c0.184-0.471,0.275-0.978,0.275-1.521c0-0.765-0.232-1.372-0.697-1.82
				c-0.465-0.448-1.108-0.672-1.933-0.672c-0.595,0-1.159,0.098-1.692,0.294s-1.127,0.553-1.781,1.069l-0.863-1.109
				c1.321-1.099,2.761-1.648,4.317-1.648c1.348,0,2.403,0.345,3.169,1.035c0.766,0.69,1.148,1.618,1.148,2.782
				c0,0.909-0.256,1.809-0.766,2.699c-0.51,0.889-1.465,2.015-2.865,3.375l-3.14,3.071v0.078h7.379V39.186z"/>
		</g>
		<g>
			<path fill="#7D7D7D" d="M141.675,48.639h-1.59V38.415c0-0.851,0.026-1.655,0.079-2.414c-0.138,0.137-0.291,0.281-0.462,0.432
				c-0.17,0.151-0.948,0.789-2.335,1.914l-0.863-1.119l3.797-2.934h1.374V48.639z"/>
		</g>
		<g>
			<path fill="#7D7D7D" d="M172.557,71.72h-9.43v-1.403l3.777-3.797c1.151-1.165,1.91-1.996,2.276-2.493
				c0.366-0.497,0.642-0.981,0.824-1.452c0.183-0.471,0.274-0.978,0.274-1.521c0-0.765-0.232-1.372-0.696-1.82
				c-0.465-0.448-1.108-0.672-1.933-0.672c-0.596,0-1.16,0.098-1.693,0.294s-1.127,0.553-1.781,1.069l-0.863-1.108
				c1.321-1.099,2.762-1.648,4.318-1.648c1.348,0,2.403,0.345,3.169,1.035c0.765,0.69,1.147,1.617,1.147,2.782
				c0,0.909-0.255,1.809-0.766,2.698c-0.51,0.89-1.465,2.015-2.864,3.375l-3.14,3.071v0.079h7.379V71.72z"/>
		</g>
		<g>
			<path fill="#7D7D7D" d="M180.78,101.208c0,0.916-0.257,1.665-0.771,2.247s-1.241,0.971-2.184,1.167v0.079
				c1.152,0.144,2.006,0.51,2.562,1.099s0.834,1.361,0.834,2.315c0,1.367-0.474,2.419-1.423,3.155
				c-0.948,0.736-2.296,1.104-4.043,1.104c-0.758,0-1.453-0.058-2.084-0.172c-0.632-0.114-1.245-0.316-1.84-0.604v-1.55
				c0.621,0.307,1.283,0.541,1.986,0.702s1.369,0.24,1.997,0.24c2.479,0,3.719-0.971,3.719-2.914c0-1.74-1.367-2.61-4.102-2.61
				h-1.413v-1.403h1.433c1.118,0,2.005-0.247,2.659-0.741c0.654-0.494,0.981-1.179,0.981-2.056c0-0.7-0.241-1.25-0.722-1.648
				c-0.48-0.399-1.133-0.599-1.957-0.599c-0.629,0-1.221,0.085-1.776,0.255c-0.556,0.17-1.19,0.484-1.903,0.942l-0.824-1.099
				c0.588-0.465,1.268-0.829,2.035-1.094c0.77-0.265,1.579-0.397,2.43-0.397c1.393,0,2.476,0.319,3.248,0.957
				C180.395,99.221,180.78,100.095,180.78,101.208z"/>
		</g>
		<g>
			<path fill="#7D7D7D" d="M171.832,144.595h-2.13v3.297h-1.56v-3.297h-6.977v-1.423l6.809-9.704h1.728v9.646h2.13V144.595z
				 M168.143,143.113v-4.769c0-0.936,0.032-1.992,0.098-3.169h-0.078c-0.314,0.628-0.609,1.148-0.884,1.56l-4.483,6.378H168.143z"/>
		</g>
		<g>
			<path fill="#7D7D7D" d="M141.02,166.514c1.511,0,2.699,0.375,3.566,1.123c0.867,0.749,1.301,1.775,1.301,3.076
				c0,1.486-0.473,2.65-1.418,3.494s-2.249,1.266-3.91,1.266c-1.616,0-2.85-0.26-3.699-0.775v-1.57
				c0.457,0.295,1.026,0.525,1.707,0.691c0.68,0.168,1.351,0.251,2.012,0.251c1.15,0,2.045-0.271,2.684-0.814
				c0.637-0.544,0.956-1.329,0.956-2.354c0-2.002-1.227-3.004-3.68-3.004c-0.621,0-1.452,0.095-2.492,0.285l-0.844-0.539l0.54-6.712
				h7.133v1.501h-5.74l-0.363,4.308C139.524,166.588,140.273,166.514,141.02,166.514z"/>
		</g>
		<g>
			<path fill="#7D7D7D" d="M100.313,177.635c0-2.82,0.548-4.928,1.644-6.324c1.096-1.396,2.717-2.095,4.862-2.095
				c0.74,0,1.322,0.062,1.747,0.187v1.403c-0.504-0.164-1.079-0.245-1.728-0.245c-1.537,0-2.711,0.479-3.522,1.436
				c-0.811,0.959-1.256,2.465-1.334,4.52h0.118c0.72-1.125,1.858-1.688,3.415-1.688c1.289,0,2.305,0.389,3.047,1.168
				c0.742,0.778,1.113,1.835,1.113,3.17c0,1.491-0.406,2.662-1.221,3.517c-0.814,0.854-1.916,1.281-3.303,1.281
				c-1.485,0-2.662-0.558-3.532-1.674C100.748,181.176,100.313,179.623,100.313,177.635z M105.131,182.58
				c0.929,0,1.65-0.293,2.164-0.879c0.514-0.585,0.77-1.431,0.77-2.535c0-0.949-0.238-1.695-0.716-2.238s-1.19-0.813-2.14-0.813
				c-0.588,0-1.128,0.12-1.619,0.362s-0.881,0.576-1.172,1.002c-0.291,0.424-0.437,0.865-0.437,1.324
				c0,0.673,0.131,1.301,0.392,1.884c0.262,0.582,0.633,1.043,1.114,1.384C103.968,182.41,104.516,182.58,105.131,182.58z"/>
		</g>
		<g>
			<path fill="#7D7D7D" d="M65.885,174.768l5.946-12.844H64.01v-1.501h9.547v1.305l-5.868,13.041H65.885z"/>
		</g>
		<g>
			<path fill="#7D7D7D" d="M43.808,134.969c1.309,0,2.345,0.304,3.11,0.913c0.766,0.608,1.148,1.449,1.148,2.522
				c0,0.707-0.219,1.351-0.658,1.933c-0.438,0.583-1.138,1.112-2.1,1.589c1.164,0.557,1.992,1.14,2.482,1.752
				c0.491,0.611,0.736,1.319,0.736,2.124c0,1.191-0.416,2.141-1.246,2.852c-0.831,0.709-1.969,1.063-3.415,1.063
				c-1.531,0-2.708-0.334-3.533-1.005c-0.824-0.671-1.236-1.621-1.236-2.852c0-1.642,1.001-2.92,3.003-3.836
				c-0.903-0.51-1.551-1.061-1.943-1.652c-0.393-0.593-0.589-1.255-0.589-1.988c0-1.041,0.384-1.869,1.153-2.487
				C41.491,135.279,42.519,134.969,43.808,134.969z M40.707,145.9c0,0.785,0.273,1.397,0.819,1.835
				c0.546,0.438,1.313,0.657,2.301,0.657c0.975,0,1.733-0.229,2.277-0.687c0.543-0.457,0.814-1.085,0.814-1.884
				c0-0.634-0.255-1.198-0.765-1.691c-0.51-0.495-1.4-0.974-2.669-1.438c-0.975,0.419-1.681,0.882-2.12,1.389
				C40.926,144.587,40.707,145.193,40.707,145.9z M43.788,136.293c-0.818,0-1.458,0.196-1.923,0.589
				c-0.464,0.393-0.697,0.917-0.697,1.57c0,0.603,0.193,1.119,0.579,1.55c0.386,0.432,1.099,0.864,2.139,1.295
				c0.936-0.393,1.598-0.814,1.987-1.266c0.389-0.452,0.584-0.978,0.584-1.58c0-0.66-0.237-1.185-0.711-1.574
				C45.271,136.489,44.619,136.293,43.788,136.293z"/>
		</g>
		<g>
			<path fill="#7D7D7D" d="M38.168,103.955c0,5.613-2.172,8.419-6.515,8.419c-0.759,0-1.361-0.066-1.806-0.196v-1.403
				c0.523,0.17,1.119,0.255,1.786,0.255c1.57,0,2.755-0.486,3.557-1.457c0.801-0.972,1.238-2.461,1.31-4.47h-0.118
				c-0.36,0.543-0.837,0.957-1.433,1.241s-1.266,0.427-2.012,0.427c-1.269,0-2.276-0.379-3.022-1.138
				c-0.746-0.759-1.119-1.819-1.119-3.179c0-1.491,0.417-2.669,1.251-3.532c0.834-0.864,1.932-1.295,3.292-1.295
				c0.975,0,1.827,0.25,2.556,0.75c0.729,0.5,1.291,1.23,1.683,2.188C37.972,101.523,38.168,102.653,38.168,103.955z M33.341,99.02
				c-0.936,0-1.658,0.301-2.168,0.902c-0.51,0.602-0.765,1.439-0.765,2.512c0,0.942,0.235,1.683,0.706,2.223
				c0.471,0.54,1.188,0.81,2.149,0.81c0.595,0,1.143-0.122,1.644-0.363s0.895-0.573,1.183-0.991s0.432-0.857,0.432-1.315
				c0-0.687-0.134-1.321-0.402-1.903c-0.268-0.583-0.643-1.04-1.124-1.374C34.514,99.186,33.962,99.02,33.341,99.02z"/>
		</g>
		<g>
			<path fill="#7D7D7D" d="M37.993,73.74h-1.59V63.516c0-0.85,0.026-1.655,0.079-2.414c-0.138,0.137-0.291,0.281-0.461,0.432
				c-0.17,0.151-0.948,0.789-2.335,1.914l-0.864-1.119l3.797-2.934h1.374V73.74z"/>
			<path fill="#7D7D7D" d="M52.957,66.548c0,2.479-0.391,4.331-1.172,5.554s-1.977,1.835-3.586,1.835
				c-1.544,0-2.718-0.626-3.522-1.879c-0.805-1.253-1.207-3.089-1.207-5.51c0-2.499,0.389-4.353,1.167-5.563
				c0.779-1.21,1.966-1.815,3.562-1.815c1.557,0,2.739,0.631,3.547,1.894C52.553,62.325,52.957,64.154,52.957,66.548z
				 M45.117,66.548c0,2.086,0.245,3.606,0.736,4.558c0.491,0.952,1.272,1.428,2.345,1.428c1.086,0,1.873-0.482,2.36-1.447
				c0.487-0.965,0.731-2.478,0.731-4.538s-0.244-3.57-0.731-4.528c-0.487-0.958-1.274-1.438-2.36-1.438
				c-1.073,0-1.854,0.472-2.345,1.418C45.362,62.945,45.117,64.461,45.117,66.548z"/>
		</g>
		<g>
			<path fill="#7D7D7D" d="M63.188,46.75h-1.589V36.526c0-0.85,0.026-1.655,0.079-2.414c-0.138,0.137-0.291,0.281-0.461,0.432
				c-0.17,0.15-0.948,0.789-2.335,1.914l-0.863-1.119l3.797-2.934h1.374V46.75z"/>
			<path fill="#7D7D7D" d="M74.678,46.75h-1.589V36.526c0-0.85,0.026-1.655,0.079-2.414c-0.138,0.137-0.291,0.281-0.461,0.432
				c-0.17,0.15-0.948,0.789-2.335,1.914l-0.863-1.119l3.797-2.934h1.374V46.75z"/>
		</g>
	</g>
</g>
</svg>
