<?xml version="1.0" encoding="utf-8"?>
<!-- Generator: Adobe Illustrator 15.0.0, SVG Export Plug-In . SVG Version: 6.00 Build 0)  -->
<!DOCTYPE svg PUBLIC "-//W3C//DTD SVG 1.1//EN" "http://www.w3.org/Graphics/SVG/1.1/DTD/svg11.dtd" [
	<!ENTITY ns_extend "http://ns.adobe.com/Extensibility/1.0/">
	<!ENTITY ns_ai "http://ns.adobe.com/AdobeIllustrator/10.0/">
	<!ENTITY ns_graphs "http://ns.adobe.com/Graphs/1.0/">
	<!ENTITY ns_vars "http://ns.adobe.com/Variables/1.0/">
	<!ENTITY ns_imrep "http://ns.adobe.com/ImageReplacement/1.0/">
	<!ENTITY ns_sfw "http://ns.adobe.com/SaveForWeb/1.0/">
	<!ENTITY ns_custom "http://ns.adobe.com/GenericCustomNamespace/1.0/">
	<!ENTITY ns_adobe_xpath "http://ns.adobe.com/XPath/1.0/">
]>
<svg version="1.1" id="Calque_1" xmlns:x="&ns_extend;" xmlns:i="&ns_ai;" xmlns:graph="&ns_graphs;"
	 xmlns="http://www.w3.org/2000/svg" xmlns:xlink="http://www.w3.org/1999/xlink" x="0px" y="0px" width="210px" height="210px"
	 viewBox="0 0 210 210" enable-background="new 0 0 210 210" xml:space="preserve">
<metadata>
	<sfw  xmlns="&ns_sfw;">
		<slices></slices>
		<sliceSourceBounds  height="210" width="210" y="-74" x="-77" bottomLeftOrigin="true"></sliceSourceBounds>
	</sfw>
</metadata>
<g>
	<circle fill="#FFFFFF" cx="105" cy="105" r="104.994"/>
	<path fill="#2D2D2D" d="M209.987,103.995c-0.173-18.44-5.097-35.742-13.61-50.743c-0.33-0.583-0.668-1.161-1.01-1.737
		c-9-15.172-21.709-27.882-36.883-36.882c-0.576-0.341-1.154-0.68-1.736-1.01c-15.002-8.514-32.303-13.437-50.743-13.609
		C105.67,0.01,105.336,0,105,0s-0.67,0.01-1.005,0.013c-18.44,0.173-35.742,5.096-50.743,13.609
		c-0.583,0.331-1.161,0.669-1.736,1.01c-15.173,9-27.883,21.71-36.883,36.882c-0.342,0.576-0.68,1.154-1.01,1.737
		C5.109,68.253,0.186,85.555,0.013,103.995C0.01,104.331,0,104.664,0,105c0,0.336,0.01,0.67,0.013,1.004
		c0.173,18.44,5.096,35.743,13.61,50.743c0.331,0.584,0.668,1.161,1.01,1.737c9,15.173,21.71,27.883,36.883,36.883
		c0.576,0.342,1.154,0.68,1.736,1.011c15.001,8.514,32.303,13.437,50.743,13.609C104.33,209.99,104.664,210,105,210
		s0.67-0.01,1.005-0.013c18.44-0.173,35.741-5.096,50.743-13.609c0.582-0.331,1.16-0.669,1.736-1.011
		c15.174-9,27.883-21.71,36.883-36.883c0.342-0.576,0.68-1.153,1.01-1.737c8.514-15,13.438-32.303,13.61-50.743
		C209.99,105.67,210,105.336,210,105C210,104.664,209.99,104.331,209.987,103.995z M191.998,154.212l-6.927-4.011
		c-0.33,0.583-0.667,1.162-1.009,1.737l6.925,4.01c-8.565,14.399-20.64,26.474-35.039,35.039l-4.01-6.925
		c-0.575,0.342-1.154,0.679-1.737,1.009l4.011,6.927c-14.265,8.101-30.704,12.792-48.207,12.965v-8.038v-6.544
		c-0.336,0.004-0.668,0.025-1.005,0.025s-0.669-0.021-1.005-0.025v6.544v8.038c-17.503-0.173-33.943-4.864-48.207-12.965
		l4.011-6.927c-0.583-0.33-1.162-0.667-1.737-1.009l-4.01,6.925c-14.399-8.565-26.474-20.64-35.039-35.039l6.925-4.01
		c-0.342-0.575-0.679-1.154-1.009-1.737l-6.927,4.011C9.901,139.948,5.21,123.508,5.037,106.004h8.039h6.543
		c-0.004-0.335-0.025-0.667-0.025-1.004c0-0.337,0.021-0.668,0.025-1.005h-6.543H5.037C5.21,86.493,9.901,70.053,18.002,55.789
		l6.927,4.011c0.33-0.583,0.667-1.163,1.009-1.738l-6.925-4.01c8.565-14.399,20.64-26.474,35.039-35.039l4.01,6.925
		c0.575-0.343,1.154-0.68,1.737-1.009l-4.011-6.927C70.052,9.901,86.492,5.21,103.995,5.037v8.038v6.543
		c0.336-0.004,0.668-0.025,1.005-0.025s0.669,0.021,1.005,0.025v-6.543V5.037c17.503,0.173,33.942,4.864,48.207,12.965l-4.011,6.927
		c0.583,0.33,1.162,0.667,1.737,1.009l4.01-6.925c14.399,8.564,26.474,20.64,35.039,35.039l-6.925,4.01
		c0.342,0.575,0.679,1.154,1.009,1.738l6.927-4.011c8.101,14.264,12.791,30.704,12.965,48.207h-8.038h-6.544
		c0.004,0.336,0.025,0.668,0.025,1.005c0,0.337-0.021,0.669-0.025,1.004h6.544h8.038
		C204.789,123.508,200.099,139.948,191.998,154.212z"/>
	<path fill="#FFFFFF" d="M190.381,106.004c0.004-0.334,0.025-0.666,0.025-1.004s-0.021-0.669-0.025-1.005h6.544h8.038
		c-0.174-17.502-4.864-33.942-12.965-48.207l-6.927,4.01c-0.33-0.583-0.667-1.162-1.009-1.737l6.925-4.01
		c-8.565-14.398-20.64-26.474-35.039-35.038l-4.01,6.925c-0.575-0.343-1.154-0.68-1.737-1.009l4.011-6.927
		C139.947,9.901,123.508,5.21,106.005,5.037v8.038v6.543c-0.336-0.004-0.668-0.025-1.005-0.025s-0.669,0.021-1.005,0.025v-6.543
		V5.037C86.492,5.21,70.052,9.901,55.788,18.002l4.011,6.927c-0.583,0.33-1.162,0.667-1.737,1.009l-4.01-6.925
		c-14.399,8.564-26.474,20.64-35.039,35.038l6.925,4.01c-0.342,0.575-0.679,1.154-1.009,1.737l-6.927-4.01
		C9.901,70.053,5.21,86.492,5.037,103.995h8.039h6.543c-0.004,0.336-0.025,0.667-0.025,1.005s0.021,0.669,0.025,1.004h-6.543H5.037
		c0.174,17.504,4.865,33.943,12.965,48.208l6.927-4.01c0.33,0.582,0.667,1.16,1.009,1.736l-6.925,4.009
		c8.565,14.4,20.64,26.475,35.039,35.04l4.01-6.926c0.575,0.343,1.154,0.68,1.737,1.01l-4.011,6.927
		c14.264,8.101,30.704,12.792,48.207,12.965v-8.038v-6.544c0.336,0.004,0.668,0.025,1.005,0.025s0.669-0.021,1.005-0.025v6.544
		v8.038c17.503-0.173,33.942-4.864,48.207-12.965l-4.011-6.927c0.583-0.33,1.162-0.667,1.737-1.01l4.01,6.926
		c14.399-8.565,26.474-20.64,35.039-35.04l-6.925-4.009c0.342-0.576,0.679-1.154,1.009-1.736l6.927,4.01
		c8.101-14.265,12.791-30.704,12.965-48.208h-8.038H190.381z"/>
</g>
</svg>
